<svg xmlns="http://www.w3.org/2000/svg" xmlns:xlink="http://www.w3.org/1999/xlink" width="45" height="45" viewBox="0 0 45 45">
    <defs>
        <path id="jbm6awm44a" d="M0.006 0L29 0 29 29 0.006 29z"/>
    </defs>
    <g fill="none" fill-rule="evenodd">
        <g>
            <g>
                <g>
                    <g>
                        <g>
                            <g transform="translate(-543 -213) translate(440 50) translate(55 115) translate(48 48) translate(8 8)">
                                <mask id="zi7ll27dyb" fill="#fff">
                                    <use xlink:href="#jbm6awm44a"/>
                                </mask>
                                <path fill="#777" d="M26.226 0C27.756 0 29 1.245 29 2.774v16.239c5.007.261 9 4.417 9 9.487 0 5.238-4.262 9.5-9.5 9.5-5.07 0-9.226-3.993-9.487-9H29v-9.987c-.165-.009-.332-.013-.5-.013-5.238 0-9.5 4.262-9.5 9.5 0 .168.004.335.013.5H2.773C1.246 29 0 27.755 0 26.226V2.774C0 1.244 1.245 0 2.774 0zm-.361 3.135v14.623c-.27-.353-3.95-5.28-5.625-5.28-1.676 0-3.935 2.916-3.935 2.916-.475-.705-1.226-1.79-2.057-2.883-2.646-3.475-3.73-3.897-4.44-3.856-.696.04-1.718.56-5.047 6.241-.581.992-1.141 1.986-1.626 2.865V3.135h22.73zm-5.035 2.09c-1.148 0-2.078.931-2.078 2.079 0 1.148.93 2.078 2.078 2.078 1.148 0 2.078-.93 2.078-2.078 0-1.148-.93-2.078-2.078-2.078z" mask="url(#zi7ll27dyb)"/>
                                <path fill="#777" fill-rule="nonzero" d="M28.5 21c-4.135 0-7.5 3.365-7.5 7.5s3.365 7.5 7.5 7.5 7.5-3.365 7.5-7.5-3.365-7.5-7.5-7.5zm3.173 8.654h-2.02v2.02c0 .637-.515 1.153-1.153 1.153s-1.154-.516-1.154-1.154v-2.02h-2.02c-.637 0-1.153-.515-1.153-1.153s.516-1.154 1.154-1.154h2.02v-2.02c0-.637.515-1.153 1.153-1.153s1.154.516 1.154 1.154v2.02h2.02c.637 0 1.153.515 1.153 1.153s-.516 1.154-1.154 1.154z"/>
                            </g>
                        </g>
                    </g>
                </g>
            </g>
        </g>
    </g>
</svg>
